<svg xmlns="http://www.w3.org/2000/svg" width="89" height="53" fill="none" viewBox="0 0 89 53"><g clip-path="url(#clip0_733_39294)"><rect width=".89" height="1.767" x=".89" y="50.35" fill="#fff"/><rect width=".89" height="2.65" x="1.78" y="47.7" fill="#fff"/><rect width=".89" height="3.533" x="2.67" y="44.167" fill="#fff"/><rect width=".89" height="2.65" x="3.56" y="41.517" fill="#fff"/><rect width=".89" height="3.533" x="4.45" y="37.983" fill="#fff"/><rect width=".89" height="5.3" x="6.23" y="37.983" fill="#fff"/><rect width=".89" height="15.017" x="5.34" y="22.967" fill="#fff"/><rect width=".89" height="3.533" x="6.23" y="19.433" fill="#fff"/><rect width=".89" height="2.65" x="7.12" y="16.783" fill="#fff"/><rect width=".89" height="1.767" x="8.01" y="15.017" fill="#fff"/><rect width=".89" height="1.767" x="8.9" y="13.25" fill="#fff"/><rect width=".89" height=".883" x="9.79" y="12.367" fill="#fff"/><rect width="1.78" height=".883" x="15.13" y="7.067" fill="#fff"/><rect width="2.67" height=".883" x="18.69" y="5.3" fill="#fff"/><rect width="10.68" height=".883" x="21.36" y="4.417" fill="#fff"/><rect width="3.56" height=".883" x="32.04" y="5.3" fill="#fff"/><rect width="1.78" height=".883" x="35.6" y="6.183" fill="#fff"/><rect width="1.78" height=".883" x="37.38" y="7.067" fill="#fff"/><rect width=".89" height=".883" x="39.16" y="7.95" fill="#fff"/><rect width=".89" height="1.767" x="44.5" y="13.25" fill="#fff"/><rect width=".89" height="2.65" x="46.28" y="16.783" fill="#fff"/><rect width=".89" height="1.767" x="47.17" y="19.433" fill="#fff"/><rect width=".89" height=".883" x="46.28" y="21.2" fill="#fff"/><rect width="1.78" height=".883" x="41.83" y="23.85" fill="#fff"/><rect width="1.78" height=".883" x="39.16" y="25.617" fill="#fff"/><rect width=".89" height=".883" x="43.61" y="22.967" fill="#fff"/><rect width=".89" height=".883" x="40.94" y="24.733" fill="#fff"/><rect width="1.78" height=".883" x="44.5" y="22.083" fill="#fff"/><rect width=".89" height=".883" x="48.06" y="19.433" fill="#fff"/><rect width="1.78" height=".883" x="48.95" y="18.55" fill="#fff"/><rect width="3.56" height=".883" x="52.51" y="16.783" fill="#fff"/><rect width="1.78" height=".883" x="56.07" y="17.667" fill="#fff"/><rect width=".89" height=".883" x="57.85" y="18.55" fill="#fff"/><rect width=".89" height="4.417" x="58.74" y="19.433" fill="#fff"/><rect width=".89" height="3.533" x="57.85" y="22.083" fill="#fff"/><rect width=".89" height="4.417" x="56.96" y="22.083" fill="#fff"/><rect width=".89" height="5.3" x="56.07" y="22.083" fill="#fff"/><rect width=".89" height="5.3" x="55.18" y="22.967" fill="#fff"/><rect width=".89" height="1.767" x="70.31" y="8.833" fill="#fff"/><rect width=".89" height="3.533" x="71.2" y="7.95" fill="#fff"/><rect width=".89" height="4.417" x="72.09" y="7.95" fill="#fff"/><rect width=".89" height="4.417" x="75.65" y="11.483" fill="#fff"/><rect width=".89" height="7.067" x="80.99" y="8.833" fill="#fff"/><rect width=".89" height="7.067" x="81.88" y="7.067" fill="#fff"/><rect width=".89" height="7.067" x="82.77" y="5.3" fill="#fff"/><rect width=".89" height="7.067" x="84.55" y="1.767" fill="#fff"/><rect width=".89" height="6.183" x="85.44" y=".883" fill="#fff"/><rect width=".89" height="4.417" x="86.33" y=".883" fill="#fff"/><rect width=".89" height="1.767" x="87.22" y="1.767" fill="#fff"/><rect width=".89" height="7.067" x="83.66" y="3.533" fill="#fff"/><rect width=".89" height="7.067" x="80.1" y="10.6" fill="#fff"/><rect width=".89" height="6.183" x="79.21" y="12.367" fill="#fff"/><rect width=".89" height="4.417" x="78.32" y="14.133" fill="#fff"/><rect width=".89" height="4.417" x="77.43" y="13.25" fill="#fff"/><rect width=".89" height="4.417" x="76.54" y="12.367" fill="#fff"/><rect width=".89" height="4.417" x="74.76" y="10.6" fill="#fff"/><rect width=".89" height="4.417" x="73.87" y="9.717" fill="#fff"/><rect width=".89" height="4.417" x="72.98" y="8.833" fill="#fff"/><rect width=".89" height="6.183" x="54.29" y="22.967" fill="#fff"/><rect width=".89" height="6.183" x="53.4" y="23.85" fill="#fff"/><rect width=".89" height="6.183" x="50.73" y="26.5" fill="#fff"/><rect width=".89" height="7.95" x="49.84" y="27.383" fill="#fff"/><rect width=".89" height="1.767" x="50.73" y="33.567" fill="#fff"/><rect width="3.56" height=".883" x="51.62" y="33.567" fill="#fff"/><rect width="4.45" height=".883" x="55.18" y="32.683" fill="#fff"/><rect width=".89" height="3.533" x="59.63" y="33.567" fill="#fff"/><rect width=".89" height=".883" x="58.74" y="37.1" fill="#fff"/><rect width=".89" height=".883" x="56.96" y="38.867" fill="#fff"/><rect width="1.78" height=".883" x="55.18" y="39.75" fill="#fff"/><rect width="2.67" height=".883" x="52.51" y="40.633" fill="#fff"/><rect width="2.67" height=".883" x="49.84" y="41.517" fill="#fff"/><rect width="5.34" height=".883" x="47.17" y="42.4" fill="#fff"/><rect width="8.01" height=".883" x="44.5" y="43.283" fill="#fff"/><rect width="11.57" height=".883" x="40.94" y="44.167" fill="#fff"/><rect width="8.01" height=".883" x="42.72" y="45.05" fill="#fff"/><rect width="4.45" height=".883" x="44.5" y="45.933" fill="#fff"/><rect width=".89" height="1.767" x="51.62" y="45.05" fill="#fff"/><rect width=".89" height="3.533" x="52.51" y="46.817" fill="#fff"/><rect width=".89" height="1.767" x="53.4" y="50.35" fill="#fff"/><rect width="3.56" height=".883" x="53.4" y="47.7" fill="#fff"/><rect width="1.78" height=".883" x="56.96" y="46.817" fill="#fff"/><rect width=".89" height=".883" x="62.3" y="44.167" fill="#fff"/><rect width=".89" height="1.767" x="66.75" y="38.867" fill="#fff"/><rect width=".89" height="3.533" x="71.2" y="27.383" fill="#fff"/><rect width=".89" height="1.767" x="74.76" y="27.383" fill="#fff"/><rect width="1.78" height=".883" x="76.54" y="32.683" fill="#fff"/><rect width=".89" height=".883" x="80.1" y="34.45" fill="#fff"/><rect width=".89" height="3.533" x="71.2" y="36.217" fill="#fff"/><rect width=".89" height="5.3" x="81.88" y="37.1" fill="#fff"/><rect width=".89" height="1.767" x="80.99" y="35.333" fill="#fff"/><rect width="1.78" height=".883" x="73.87" y="43.283" fill="#fff"/><rect width=".89" height=".883" x="80.99" y="42.4" fill="#fff"/><rect width="1.78" height=".883" x="79.21" y="43.283" fill="#fff"/><rect width="3.56" height=".883" x="75.65" y="44.167" fill="#fff"/><rect width=".89" height="1.767" x="77.43" y="45.05" fill="#fff"/><rect width=".89" height="1.767" x="74.76" y="50.35" fill="#fff"/><rect width=".89" height="1.767" x="75.65" y="48.583" fill="#fff"/><rect width=".89" height="1.767" x="76.54" y="46.817" fill="#fff"/><rect width=".89" height="1.767" x="72.98" y="41.517" fill="#fff"/><rect width=".89" height="1.767" x="72.09" y="39.75" fill="#fff"/><rect width=".89" height=".883" x="72.09" y="35.333" fill="#fff"/><rect width=".89" height=".883" x="72.98" y="34.45" fill="#fff"/><rect width="1.78" height=".883" x="78.32" y="33.567" fill="#fff"/><rect width=".89" height="1.767" x="74.76" y="27.383" fill="#fff"/><rect width="1.78" height=".883" x="73.87" y="33.567" fill="#fff"/><rect width=".89" height="4.417" x="75.65" y="29.15" fill="#fff"/><rect width="2.67" height=".883" x="72.09" y="26.5" fill="#fff"/><rect width=".89" height="2.65" x="70.31" y="30.917" fill="#fff"/><rect width=".89" height="1.767" x="69.42" y="33.567" fill="#fff"/><rect width=".89" height="1.767" x="68.53" y="35.333" fill="#fff"/><rect width=".89" height="1.767" x="67.64" y="37.1" fill="#fff"/><rect width=".89" height=".883" x="65.86" y="40.633" fill="#fff"/><rect width=".89" height=".883" x="64.97" y="41.517" fill="#fff"/><rect width=".89" height=".883" x="64.08" y="42.4" fill="#fff"/><rect width=".89" height=".883" x="63.19" y="43.283" fill="#fff"/><rect width="1.78" height=".883" x="60.52" y="45.05" fill="#fff"/><rect width="1.78" height=".883" x="58.74" y="45.933" fill="#fff"/><rect width=".89" height=".883" x="57.85" y="37.983" fill="#fff"/><rect width=".89" height="7.067" x="48.95" y="28.267" fill="#fff"/><rect width=".89" height="6.183" x="48.06" y="29.15" fill="#fff"/><rect width=".89" height="4.417" x="47.17" y="30.033" fill="#fff"/><rect width=".89" height="3.533" x="46.28" y="30.917" fill="#fff"/><rect width=".89" height="1.767" x="45.39" y="31.8" fill="#fff"/><rect width=".89" height=".883" x="44.5" y="32.683" fill="#fff"/><rect width="1.78" height=".883" x="42.72" y="33.567" fill="#fff"/><rect width="2.67" height=".883" x="40.05" y="34.45" fill="#fff"/><rect width="2.67" height=".883" x="37.38" y="35.333" fill="#fff"/><rect width="12.46" height=".883" x="31.15" y="36.217" fill="#fff"/><rect width="2.67" height=".883" x="28.48" y="35.333" fill="#fff"/><rect width="1.78" height=".883" x="26.7" y="34.45" fill="#fff"/><rect width=".89" height=".883" x="25.81" y="33.567" fill="#fff"/><rect width=".89" height=".883" x="29.37" y="28.267" fill="#fff"/><rect width="1.78" height=".883" x="27.59" y="27.383" fill="#fff"/><rect width=".89" height="1.767" x="29.37" y="25.617" fill="#fff"/><rect width=".89" height="1.767" x="29.37" y="19.433" fill="#fff"/><rect width=".89" height=".883" x="28.48" y="18.55" fill="#fff"/><rect width=".89" height=".883" x="27.59" y="17.667" fill="#fff"/><rect width=".89" height=".883" x="18.69" y="17.667" fill="#fff"/><rect width=".89" height=".883" x="17.8" y="18.55" fill="#fff"/><rect width=".89" height="1.767" x="16.91" y="19.433" fill="#fff"/><rect width=".89" height="4.417" x="16.02" y="21.2" fill="#fff"/><rect width=".89" height="1.767" x="16.91" y="25.617" fill="#fff"/><rect width=".89" height=".883" x="17.8" y="27.383" fill="#fff"/><rect width="1.78" height=".883" x="20.47" y="27.383" fill="#fff"/><rect width=".89" height="1.767" x="18.69" y="29.15" fill="#fff"/><rect width=".89" height="1.767" x="17.8" y="30.917" fill="#fff"/><rect width="1.78" height=".883" x="18.69" y="28.267" fill="#fff"/><rect width="7.12" height=".883" x="20.47" y="26.5" fill="#fff"/><rect width="8.01" height=".883" x="19.58" y="25.617" fill="#fff"/><rect width="9.79" height=".883" x="18.69" y="24.733" fill="#fff"/><rect width="9.79" height=".883" x="18.69" y="22.083" fill="#fff"/><rect width="5.34" height=".883" x="23.14" y="21.2" fill="#fff"/><rect width="4.45" height=".883" x="23.14" y="20.317" fill="#fff"/><rect width="6.23" height=".883" x="20.47" y="19.433" fill="#fff"/><rect width="4.45" height=".883" x="21.36" y="18.55" fill="#fff"/><rect width="1.78" height=".883" x="19.58" y="20.317" fill="#fff"/><rect width="2.67" height=".883" x="18.69" y="21.2" fill="#fff"/><rect width="9.79" height=".883" x="18.69" y="22.967" fill="#fff"/><rect width="9.79" height=".883" x="18.69" y="23.85" fill="#fff"/><rect width="1.78" height=".883" x="25.81" y="16.783" fill="#fff"/><rect width="1.78" height=".883" x="19.58" y="16.783" fill="#fff"/><rect width="4.45" height=".883" x="21.36" y="15.9" fill="#fff"/><rect width=".89" height="4.417" x="30.26" y="21.2" fill="#fff"/><rect width="4.45" height=".883" x="43.61" y="35.333" fill="#fff"/><rect width=".89" height="6.183" x="51.62" y="25.617" fill="#fff"/><rect width=".89" height="6.183" x="52.51" y="24.733" fill="#fff"/><rect width="1.78" height=".883" x="50.73" y="17.667" fill="#fff"/><rect width=".89" height="1.767" x="45.39" y="15.017" fill="#fff"/><rect width=".89" height=".883" x="43.61" y="12.367" fill="#fff"/><rect width=".89" height=".883" x="42.72" y="11.483" fill="#fff"/><rect width=".89" height=".883" x="41.83" y="10.6" fill="#fff"/><rect width=".89" height=".883" x="40.94" y="9.717" fill="#fff"/><rect width=".89" height=".883" x="40.05" y="8.833" fill="#fff"/><rect width="1.78" height=".883" x="16.91" y="6.183" fill="#fff"/><rect width=".89" height=".883" x="14.24" y="7.95" fill="#fff"/><rect width=".89" height=".883" x="13.35" y="8.833" fill="#fff"/><rect width=".89" height=".883" x="12.46" y="9.717" fill="#fff"/><rect width=".89" height=".883" x="11.57" y="10.6" fill="#fff"/><rect width=".89" height=".883" x="10.68" y="11.483" fill="#fff"/><rect width=".89" height="3.533" x="7.12" y="43.283" fill="#fff"/><rect width=".89" height="3.533" x="8.01" y="46.817" fill="#fff"/><rect width=".89" height="1.767" x="8.9" y="50.35" fill="#fff"/></g><defs><clipPath id="clip0_733_39294"><rect width="89" height="53" fill="#fff"/></clipPath></defs></svg>