<svg xmlns="http://www.w3.org/2000/svg" width="30" height="30" fill="none" viewBox="0 0 30 30"><g clip-path="url(#clip0_365_10001)"><rect width="18" height="2" x="6" fill="#000"/><rect width="2" height="2" x="14" y="3" fill="#000"/><rect width="2" height="2" x="14" y="5" fill="#000"/><rect width="2" height="2" x="12" y="5" fill="#000"/><rect width="2" height="2" x="16" y="5" fill="#000"/><rect width="10" height="2" x="10" y="7" fill="#000"/><rect width="2" height="2" x="16" y="27" fill="#000" transform="rotate(-180 16 27)"/><rect width="2" height="2" x="16" y="25" fill="#000" transform="rotate(-180 16 25)"/><rect width="2" height="2" x="18" y="25" fill="#000" transform="rotate(-180 18 25)"/><rect width="2" height="2" x="14" y="25" fill="#000" transform="rotate(-180 14 25)"/><rect width="10" height="2" x="20" y="23" fill="#000" transform="rotate(-180 20 23)"/><rect width="2" height="2" x="3" y="16" fill="#000" transform="rotate(-90 3 16)"/><rect width="2" height="2" x="5" y="16" fill="#000" transform="rotate(-90 5 16)"/><rect width="2" height="2" x="5" y="18" fill="#000" transform="rotate(-90 5 18)"/><rect width="2" height="2" x="5" y="14" fill="#000" transform="rotate(-90 5 14)"/><rect width="10" height="2" x="7" y="20" fill="#000" transform="rotate(-90 7 20)"/><rect width="2" height="2" x="27" y="14" fill="#000" transform="rotate(90 27 14)"/><rect width="2" height="2" x="25" y="14" fill="#000" transform="rotate(90 25 14)"/><rect width="2" height="2" x="25" y="12" fill="#000" transform="rotate(90 25 12)"/><rect width="2" height="2" x="25" y="16" fill="#000" transform="rotate(90 25 16)"/><rect width="10" height="2" x="23" y="10" fill="#000" transform="rotate(90 23 10)"/><rect width="4" height="2" x="13" y="16" fill="#000"/><rect width="4" height="2" x="13" y="16.5" fill="#000"/><rect width="4" height="2" x="13" y="11.5" fill="#000"/><rect width="4" height="3" x="13" y="13.5" fill="#000"/><rect width="2" height="3" x="17" y="13.5" fill="#000"/><rect width="2" height="3" x="11" y="13.5" fill="#000"/><rect width="2" height="2" x="4" y="2" fill="#000"/><rect width="2" height="2" x="24" y="2" fill="#000"/><rect width="2" height="2" x="26" y="4" fill="#000"/><rect width="2" height="2" x="2" y="4" fill="#000"/><rect width="2" height="2" x="4" y="26" fill="#000"/><rect width="2" height="2" x="2" y="24" fill="#000"/><rect width="2" height="2" x="24" y="26" fill="#000"/><rect width="2" height="2" x="26" y="24" fill="#000"/><rect width="2" height="18" x="28" y="6" fill="#000"/><rect width="2" height="18" y="6" fill="#000"/><rect width="18" height="2" x="6" y="28" fill="#000"/></g><defs><clipPath id="clip0_365_10001"><rect width="30" height="30" fill="#fff"/></clipPath></defs></svg>