<svg xmlns="http://www.w3.org/2000/svg" width="49" height="48" fill="none" viewBox="0 0 49 48"><rect width="48" height="48" x=".5" fill="#FF8200" fill-opacity=".2" rx="24"/><path stroke="#FF8200" stroke-width="2.5" d="M17.3915 16H13C11.8954 16 11 16.8954 11 18V34C11 35.1046 11.8954 36 13 36H37C38.1046 36 39 35.1046 39 34V18C39 16.8954 38.1046 16 37 16H33C32.3705 16 31.7777 15.7036 31.4 15.2L29.6 12.8C29.2223 12.2964 28.6295 12 28 12H22.1085C21.4189 12 20.778 12.3552 20.4125 12.94L19.0875 15.06C18.722 15.6448 18.0811 16 17.3915 16Z"/><circle cx="25" cy="25" r="4.75" stroke="#FF8200" stroke-width="2.5"/></svg>