<svg xmlns="http://www.w3.org/2000/svg" width="115" height="86" fill="none" viewBox="0 0 115 86"><g clip-path="url(#clip0_3967_169719)"><path fill="#616161" fill-rule="evenodd" d="M34.3437 11.0781C33.7915 11.0781 33.3438 11.5258 33.3438 12.0781V73.474C33.3438 74.0262 33.7915 74.474 34.3438 74.474H66.8245L65.5216 76.474H34.3438C32.6869 76.474 31.3438 75.1308 31.3438 73.474V12.0781C31.3438 10.4213 32.6869 9.07812 34.3437 9.07812H72.7043H73.1352L73.4311 9.39124L83.383 19.9211L83.6562 20.2102V20.608V20.8281V48.6348L81.6562 51.7051V21.8281H72.7734H71.7734V20.8281V11.0781H34.3437ZM73.7734 19.8281H80.5433L73.7734 12.6652V19.8281Z" clip-rule="evenodd"/><rect width="2.187" height="2.141" x="46.281" y="52.126" fill="#616161" transform="rotate(90 46.2808 52.1255)"/><rect width="2.187" height="2.141" x="70.899" y="52.126" fill="#616161" transform="rotate(90 70.8989 52.1255)"/><rect width="2.187" height="2.141" x="64.476" y="31.354" fill="#616161" transform="rotate(90 64.4761 31.3542)"/><rect width="2.187" height="2.141" x="70.897" y="37.916" fill="#616161" transform="rotate(90 70.8975 37.9158)"/><rect width="2.141" height="2.187" x="68.757" y="33.54" fill="#616161"/><rect width="2.141" height="2.187" x="64.476" y="37.916" fill="#616161"/><rect width="2.141" height="2.187" x="70.897" y="31.354" fill="#616161"/><rect width="2.141" height="2.187" x="66.617" y="35.726" fill="#616161"/><rect width="2.187" height="2.141" x="73.039" y="40.101" fill="#616161" transform="rotate(90 73.0386 40.1013)"/><rect width="2.187" height="2.141" x="64.476" y="40.101" fill="#616161" transform="rotate(90 64.4761 40.1013)"/><rect width="2.187" height="2.141" x="66.617" y="33.54" fill="#616161" transform="rotate(90 66.6172 33.54)"/><rect width="2.187" height="2.141" x="44.143" y="31.354" fill="#616161" transform="rotate(90 44.1426 31.3542)"/><rect width="2.187" height="2.141" x="50.564" y="37.916" fill="#616161" transform="rotate(90 50.564 37.9158)"/><rect width="2.141" height="2.187" x="48.423" y="33.54" fill="#616161"/><rect width="2.141" height="2.187" x="44.143" y="37.916" fill="#616161"/><rect width="2.141" height="2.187" x="50.564" y="31.354" fill="#616161"/><rect width="2.141" height="2.187" x="46.284" y="35.726" fill="#616161"/><rect width="2.187" height="2.141" x="52.705" y="40.101" fill="#616161" transform="rotate(90 52.7051 40.1013)"/><rect width="2.187" height="2.141" x="44.143" y="40.101" fill="#616161" transform="rotate(90 44.1426 40.1013)"/><rect width="2.187" height="2.141" x="46.284" y="33.54" fill="#616161" transform="rotate(90 46.2837 33.54)"/><rect width="2.187" height="22.477" x="68.758" y="49.94" fill="#616161" transform="rotate(90 68.7583 49.9399)"/><path fill="#F63F3F" d="M82.8651 54.7456C84.0546 52.9837 86.6486 52.9837 87.838 54.7456L102.423 76.3499C103.768 78.3424 102.34 81.0285 99.9365 81.0285H70.7667C68.3627 81.0285 66.9351 78.3424 68.2802 76.3499L82.8651 54.7456Z"/><ellipse cx="85.351" cy="74.367" fill="#fff" rx="1.43" ry="1.427"/><rect width="2.86" height="9.513" x="83.92" y="60.578" fill="#fff" rx="1.43"/></g><defs><clipPath id="clip0_3967_169719"><rect width="115" height="86" fill="#fff"/></clipPath></defs></svg>