<svg xmlns="http://www.w3.org/2000/svg" width="160" height="96" fill="none" viewBox="0 0 160 96"><rect width="1.6" height="3.2" x="1.6" y="91.2" fill="#D6D6D6"/><rect width="1.6" height="4.8" x="3.2" y="86.4" fill="#D6D6D6"/><rect width="1.6" height="6.4" x="4.8" y="80" fill="#D6D6D6"/><rect width="1.6" height="4.8" x="6.4" y="75.2" fill="#D6D6D6"/><rect width="1.6" height="6.4" x="8" y="68.8" fill="#D6D6D6"/><rect width="1.6" height="9.6" x="11.2" y="68.8" fill="#D6D6D6"/><rect width="1.6" height="27.2" x="9.6" y="41.6" fill="#D6D6D6"/><rect width="1.6" height="6.4" x="11.2" y="35.2" fill="#D6D6D6"/><rect width="1.6" height="4.8" x="12.8" y="30.4" fill="#D6D6D6"/><rect width="1.6" height="3.2" x="14.4" y="27.2" fill="#D6D6D6"/><rect width="1.6" height="3.2" x="16" y="24" fill="#D6D6D6"/><rect width="1.6" height="1.6" x="17.6" y="22.4" fill="#D6D6D6"/><rect width="3.2" height="1.6" x="27.2" y="12.8" fill="#D6D6D6"/><rect width="4.8" height="1.6" x="33.6" y="9.6" fill="#D6D6D6"/><rect width="19.2" height="1.6" x="38.4" y="8" fill="#D6D6D6"/><rect width="6.4" height="1.6" x="57.6" y="9.6" fill="#D6D6D6"/><rect width="3.2" height="1.6" x="64" y="11.2" fill="#D6D6D6"/><rect width="3.2" height="1.6" x="67.2" y="12.8" fill="#D6D6D6"/><rect width="1.6" height="1.6" x="70.4" y="14.4" fill="#D6D6D6"/><rect width="1.6" height="3.2" x="80" y="24" fill="#D6D6D6"/><rect width="1.6" height="4.8" x="83.2" y="30.4" fill="#D6D6D6"/><rect width="1.6" height="3.2" x="84.8" y="35.2" fill="#D6D6D6"/><rect width="1.6" height="1.6" x="83.2" y="38.4" fill="#D6D6D6"/><rect width="3.2" height="1.6" x="75.2" y="43.2" fill="#D6D6D6"/><rect width="3.2" height="1.6" x="70.4" y="46.4" fill="#D6D6D6"/><rect width="1.6" height="1.6" x="78.4" y="41.6" fill="#D6D6D6"/><rect width="1.6" height="1.6" x="73.6" y="44.8" fill="#D6D6D6"/><rect width="3.2" height="1.6" x="80" y="40" fill="#D6D6D6"/><rect width="1.6" height="1.6" x="86.4" y="35.2" fill="#D6D6D6"/><rect width="3.2" height="1.6" x="88" y="33.6" fill="#D6D6D6"/><rect width="6.4" height="1.6" x="94.4" y="30.4" fill="#D6D6D6"/><rect width="3.2" height="1.6" x="100.8" y="32" fill="#D6D6D6"/><rect width="1.6" height="1.6" x="104" y="33.6" fill="#D6D6D6"/><rect width="1.6" height="8" x="105.6" y="35.2" fill="#D6D6D6"/><rect width="1.6" height="6.4" x="104" y="40" fill="#D6D6D6"/><rect width="1.6" height="8" x="102.4" y="40" fill="#D6D6D6"/><rect width="1.6" height="9.6" x="100.8" y="40" fill="#D6D6D6"/><rect width="1.6" height="9.6" x="99.2" y="41.6" fill="#D6D6D6"/><rect width="1.6" height="3.2" x="126.4" y="16" fill="#34C7A4"/><rect width="1.6" height="6.4" x="128" y="14.4" fill="#34C7A4"/><rect width="1.6" height="8" x="129.6" y="14.4" fill="#34C7A4"/><rect width="1.6" height="8" x="136" y="20.8" fill="#34C7A4"/><rect width="1.6" height="12.8" x="145.6" y="16" fill="#34C7A4"/><rect width="1.6" height="12.8" x="147.2" y="12.8" fill="#34C7A4"/><rect width="1.6" height="12.8" x="148.8" y="9.6" fill="#34C7A4"/><rect width="1.6" height="12.8" x="152" y="3.2" fill="#34C7A4"/><rect width="1.6" height="11.2" x="153.6" y="1.6" fill="#34C7A4"/><rect width="1.6" height="8" x="155.2" y="1.6" fill="#34C7A4"/><rect width="1.6" height="3.2" x="156.8" y="3.2" fill="#34C7A4"/><rect width="1.6" height="12.8" x="150.4" y="6.4" fill="#34C7A4"/><rect width="1.6" height="12.8" x="144" y="19.2" fill="#34C7A4"/><rect width="1.6" height="11.2" x="142.4" y="22.4" fill="#34C7A4"/><rect width="1.6" height="8" x="140.8" y="25.6" fill="#34C7A4"/><rect width="1.6" height="8" x="139.2" y="24" fill="#34C7A4"/><rect width="1.6" height="8" x="137.6" y="22.4" fill="#34C7A4"/><rect width="1.6" height="8" x="134.4" y="19.2" fill="#34C7A4"/><rect width="1.6" height="8" x="132.8" y="17.6" fill="#34C7A4"/><rect width="1.6" height="8" x="131.2" y="16" fill="#34C7A4"/><rect width="1.6" height="11.2" x="97.6" y="41.6" fill="#D6D6D6"/><rect width="1.6" height="11.2" x="96" y="43.2" fill="#D6D6D6"/><rect width="1.6" height="11.2" x="91.2" y="48" fill="#D6D6D6"/><rect width="1.6" height="14.4" x="89.6" y="49.6" fill="#D6D6D6"/><rect width="1.6" height="3.2" x="91.2" y="60.8" fill="#D6D6D6"/><rect width="6.4" height="1.6" x="92.8" y="60.8" fill="#D6D6D6"/><rect width="8" height="1.6" x="99.2" y="59.2" fill="#D6D6D6"/><rect width="1.6" height="6.4" x="107.2" y="60.8" fill="#D6D6D6"/><rect width="1.6" height="1.6" x="105.6" y="67.2" fill="#D6D6D6"/><rect width="1.6" height="1.6" x="102.4" y="70.4" fill="#D6D6D6"/><rect width="3.2" height="1.6" x="99.2" y="72" fill="#D6D6D6"/><rect width="4.8" height="1.6" x="94.4" y="73.6" fill="#D6D6D6"/><rect width="4.8" height="1.6" x="89.6" y="75.2" fill="#D6D6D6"/><rect width="9.6" height="1.6" x="84.8" y="76.8" fill="#D6D6D6"/><rect width="14.4" height="1.6" x="80" y="78.4" fill="#D6D6D6"/><rect width="20.8" height="1.6" x="73.6" y="80" fill="#D6D6D6"/><rect width="14.4" height="1.6" x="76.8" y="81.6" fill="#D6D6D6"/><rect width="8" height="1.6" x="80" y="83.2" fill="#D6D6D6"/><rect width="1.6" height="3.2" x="92.8" y="81.6" fill="#D6D6D6"/><rect width="1.6" height="6.4" x="94.4" y="84.8" fill="#D6D6D6"/><rect width="1.6" height="3.2" x="96" y="91.2" fill="#D6D6D6"/><rect width="6.4" height="1.6" x="96" y="86.4" fill="#D6D6D6"/><rect width="3.2" height="1.6" x="102.4" y="84.8" fill="#D6D6D6"/><rect width="1.6" height="1.6" x="112" y="80" fill="#D6D6D6"/><rect width="1.6" height="3.2" x="120" y="70.4" fill="#D6D6D6"/><rect width="1.6" height="6.4" x="128" y="49.6" fill="#D6D6D6"/><rect width="1.6" height="3.2" x="134.4" y="49.6" fill="#D6D6D6"/><rect width="3.2" height="1.6" x="137.6" y="59.2" fill="#D6D6D6"/><rect width="1.6" height="1.6" x="144" y="62.4" fill="#D6D6D6"/><rect width="1.6" height="6.4" x="128" y="65.6" fill="#D6D6D6"/><rect width="1.6" height="9.6" x="147.2" y="67.2" fill="#D6D6D6"/><rect width="1.6" height="3.2" x="145.6" y="64" fill="#D6D6D6"/><rect width="3.2" height="1.6" x="132.8" y="78.4" fill="#D6D6D6"/><rect width="1.6" height="1.6" x="145.6" y="76.8" fill="#D6D6D6"/><rect width="3.2" height="1.6" x="142.4" y="78.4" fill="#D6D6D6"/><rect width="6.4" height="1.6" x="136" y="80" fill="#D6D6D6"/><rect width="1.6" height="3.2" x="139.2" y="81.6" fill="#D6D6D6"/><rect width="1.6" height="3.2" x="134.4" y="91.2" fill="#D6D6D6"/><rect width="1.6" height="3.2" x="136" y="88" fill="#D6D6D6"/><rect width="1.6" height="3.2" x="137.6" y="84.8" fill="#D6D6D6"/><rect width="1.6" height="3.2" x="131.2" y="75.2" fill="#D6D6D6"/><rect width="1.6" height="3.2" x="129.6" y="72" fill="#D6D6D6"/><rect width="1.6" height="1.6" x="129.6" y="64" fill="#D6D6D6"/><rect width="1.6" height="1.6" x="131.2" y="62.4" fill="#D6D6D6"/><rect width="3.2" height="1.6" x="140.8" y="60.8" fill="#D6D6D6"/><rect width="1.6" height="3.2" x="134.4" y="49.6" fill="#D6D6D6"/><rect width="3.2" height="1.6" x="132.8" y="60.8" fill="#D6D6D6"/><rect width="1.6" height="8" x="136" y="52.8" fill="#D6D6D6"/><rect width="4.8" height="1.6" x="129.6" y="48" fill="#D6D6D6"/><rect width="1.6" height="4.8" x="126.4" y="56" fill="#D6D6D6"/><rect width="1.6" height="3.2" x="124.8" y="60.8" fill="#D6D6D6"/><rect width="1.6" height="3.2" x="123.2" y="64" fill="#D6D6D6"/><rect width="1.6" height="3.2" x="121.6" y="67.2" fill="#D6D6D6"/><rect width="1.6" height="1.6" x="118.4" y="73.6" fill="#D6D6D6"/><rect width="1.6" height="1.6" x="116.8" y="75.2" fill="#D6D6D6"/><rect width="1.6" height="1.6" x="115.2" y="76.8" fill="#D6D6D6"/><rect width="1.6" height="1.6" x="113.6" y="78.4" fill="#D6D6D6"/><rect width="3.2" height="1.6" x="108.8" y="81.6" fill="#D6D6D6"/><rect width="3.2" height="1.6" x="105.6" y="83.2" fill="#D6D6D6"/><rect width="1.6" height="1.6" x="104" y="68.8" fill="#D6D6D6"/><rect width="1.6" height="12.8" x="88" y="51.2" fill="#D6D6D6"/><rect width="1.6" height="11.2" x="86.4" y="52.8" fill="#D6D6D6"/><rect width="1.6" height="8" x="84.8" y="54.4" fill="#D6D6D6"/><rect width="1.6" height="6.4" x="83.2" y="56" fill="#D6D6D6"/><rect width="1.6" height="3.2" x="81.6" y="57.6" fill="#D6D6D6"/><rect width="1.6" height="1.6" x="80" y="59.2" fill="#D6D6D6"/><rect width="3.2" height="1.6" x="76.8" y="60.8" fill="#D6D6D6"/><rect width="4.8" height="1.6" x="72" y="62.4" fill="#D6D6D6"/><rect width="4.8" height="1.6" x="67.2" y="64" fill="#D6D6D6"/><rect width="22.4" height="1.6" x="56" y="65.6" fill="#D6D6D6"/><rect width="4.8" height="1.6" x="51.2" y="64" fill="#D6D6D6"/><rect width="3.2" height="1.6" x="48" y="62.4" fill="#D6D6D6"/><rect width="1.6" height="1.6" x="46.4" y="60.8" fill="#D6D6D6"/><rect width="1.6" height="1.6" x="52.8" y="51.2" fill="#D6D6D6"/><rect width="3.2" height="1.6" x="49.6" y="49.6" fill="#D6D6D6"/><rect width="1.6" height="3.2" x="52.8" y="46.4" fill="#D6D6D6"/><rect width="1.6" height="3.2" x="52.8" y="35.2" fill="#D6D6D6"/><rect width="1.6" height="1.6" x="51.2" y="33.6" fill="#D6D6D6"/><rect width="1.6" height="1.6" x="49.6" y="32" fill="#D6D6D6"/><rect width="1.6" height="1.6" x="33.6" y="32" fill="#D6D6D6"/><rect width="1.6" height="1.6" x="32" y="33.6" fill="#D6D6D6"/><rect width="1.6" height="3.2" x="30.4" y="35.2" fill="#D6D6D6"/><rect width="1.6" height="8" x="28.8" y="38.4" fill="#D6D6D6"/><rect width="1.6" height="3.2" x="30.4" y="46.4" fill="#D6D6D6"/><rect width="1.6" height="1.6" x="32" y="49.6" fill="#D6D6D6"/><rect width="3.2" height="1.6" x="36.8" y="49.6" fill="#D6D6D6"/><rect width="1.6" height="3.2" x="33.6" y="52.8" fill="#D6D6D6"/><rect width="1.6" height="3.2" x="32" y="56" fill="#D6D6D6"/><rect width="3.2" height="1.6" x="33.6" y="51.2" fill="#D6D6D6"/><rect width="12.8" height="1.6" x="36.8" y="48" fill="#D6D6D6"/><rect width="14.4" height="1.6" x="35.2" y="46.4" fill="#D6D6D6"/><rect width="17.6" height="1.6" x="33.6" y="44.8" fill="#D6D6D6"/><rect width="17.6" height="1.6" x="33.6" y="40" fill="#D6D6D6"/><rect width="9.6" height="1.6" x="41.6" y="38.4" fill="#D6D6D6"/><rect width="8" height="1.6" x="41.6" y="36.8" fill="#D6D6D6"/><rect width="11.2" height="1.6" x="36.8" y="35.2" fill="#D6D6D6"/><rect width="8" height="1.6" x="38.4" y="33.6" fill="#D6D6D6"/><rect width="3.2" height="1.6" x="35.2" y="36.8" fill="#D6D6D6"/><rect width="4.8" height="1.6" x="33.6" y="38.4" fill="#D6D6D6"/><rect width="17.6" height="1.6" x="33.6" y="41.6" fill="#D6D6D6"/><rect width="17.6" height="1.6" x="33.6" y="43.2" fill="#D6D6D6"/><rect width="3.2" height="1.6" x="46.4" y="30.4" fill="#D6D6D6"/><rect width="3.2" height="1.6" x="35.2" y="30.4" fill="#D6D6D6"/><rect width="8" height="1.6" x="38.4" y="28.8" fill="#D6D6D6"/><rect width="1.6" height="8" x="54.4" y="38.4" fill="#D6D6D6"/><rect width="8" height="1.6" x="78.4" y="64" fill="#D6D6D6"/><rect width="1.6" height="11.2" x="92.8" y="46.4" fill="#D6D6D6"/><rect width="1.6" height="11.2" x="94.4" y="44.8" fill="#D6D6D6"/><rect width="3.2" height="1.6" x="91.2" y="32" fill="#D6D6D6"/><rect width="1.6" height="3.2" x="81.6" y="27.2" fill="#D6D6D6"/><rect width="1.6" height="1.6" x="78.4" y="22.4" fill="#D6D6D6"/><rect width="1.6" height="1.6" x="76.8" y="20.8" fill="#D6D6D6"/><rect width="1.6" height="1.6" x="75.2" y="19.2" fill="#D6D6D6"/><rect width="1.6" height="1.6" x="73.6" y="17.6" fill="#D6D6D6"/><rect width="1.6" height="1.6" x="72" y="16" fill="#D6D6D6"/><rect width="3.2" height="1.6" x="30.4" y="11.2" fill="#D6D6D6"/><rect width="1.6" height="1.6" x="25.6" y="14.4" fill="#D6D6D6"/><rect width="1.6" height="1.6" x="24" y="16" fill="#D6D6D6"/><rect width="1.6" height="1.6" x="22.4" y="17.6" fill="#D6D6D6"/><rect width="1.6" height="1.6" x="20.8" y="19.2" fill="#D6D6D6"/><rect width="1.6" height="1.6" x="19.2" y="20.8" fill="#D6D6D6"/><rect width="1.6" height="6.4" x="12.8" y="78.4" fill="#D6D6D6"/><rect width="1.6" height="6.4" x="14.4" y="84.8" fill="#D6D6D6"/><rect width="1.6" height="3.2" x="16" y="91.2" fill="#D6D6D6"/></svg>