<svg xmlns="http://www.w3.org/2000/svg" width="64" height="64" fill="none" viewBox="0 0 64 64"><rect width="1" height="24" x="55" y="20" fill="#D6D6D6"/><rect width="1" height="31" x="38" y="18" fill="#D6D6D6"/><rect width="1" height="31" x="41" y="18" fill="#D6D6D6"/><rect width="1" height="12" x="45" y="21" fill="#D6D6D6"/><rect width="1" height="12" x="52" y="21" fill="#D6D6D6"/><rect width="6" height="1" x="46" y="20" fill="#D6D6D6"/><rect width="6" height="1" x="46" y="33" fill="#D6D6D6"/><rect width="1" height="4" x="40" y="40" fill="#D6D6D6"/><rect width="1" height="2" x="39" y="16" fill="#D6D6D6"/><rect width="1" height="1" x="40" y="15" fill="#D6D6D6"/><rect width="1" height="1" x="41" y="14" fill="#D6D6D6"/><rect width="1" height="1" x="42" y="13" fill="#D6D6D6"/><rect width="6" height="1" x="43" y="12" fill="#D6D6D6"/><rect width="1" height="1" x="46" y="13" fill="#D6D6D6"/><rect width="1" height="1" x="45" y="14" fill="#D6D6D6"/><rect width="1" height="1" x="44" y="15" fill="#D6D6D6"/><rect width="1" height="1" x="43" y="16" fill="#D6D6D6"/><rect width="1" height="1" x="42" y="17" fill="#D6D6D6"/><rect width="1" height="1" x="49" y="13" fill="#D6D6D6"/><rect width="1" height="1" x="50" y="14" fill="#D6D6D6"/><rect width="1" height="1" x="51" y="15" fill="#D6D6D6"/><rect width="1" height="1" x="52" y="16" fill="#D6D6D6"/><rect width="1" height="1" x="53" y="17" fill="#D6D6D6"/><rect width="1" height="2" x="54" y="18" fill="#D6D6D6"/><rect width="3" height="6" x="35" y="29" fill="#D6D6D6"/><rect width="1" height="10" x="34" y="27" fill="#D6D6D6"/><rect width="1" height="8" x="33" y="28" fill="#D6D6D6"/><rect width="1" height="6" x="32" y="29" fill="#D6D6D6"/><rect width="1" height="4" x="31" y="30" fill="#D6D6D6"/><rect width="1" height="2" x="30" y="31" fill="#D6D6D6"/><rect width="1" height="4" x="46" y="38" fill="#D6D6D6"/><rect width="1" height="4" x="52" y="38" fill="#D6D6D6"/><rect width="1" height="2" x="49" y="39" fill="#D6D6D6"/><rect width="1" height="1" x="47" y="42" fill="#D6D6D6"/><rect width="1" height="1" x="51" y="42" fill="#D6D6D6"/><rect width="3" height="1" x="48" y="43" fill="#D6D6D6"/><rect width="3" height="1" x="48" y="36" fill="#D6D6D6"/><rect width="1" height="1" x="47" y="37" fill="#D6D6D6"/><rect width="1" height="1" x="51" y="37" fill="#D6D6D6"/><rect width="1" height="1" x="45" y="36" fill="#D6D6D6"/><rect width="1" height="1" x="46" y="45" fill="#D6D6D6"/><rect width="1" height="1" x="45" y="46" fill="#D6D6D6"/><rect width="1" height="1" x="47" y="46" fill="#D6D6D6"/><rect width="1" height="1" x="46" y="47" fill="#D6D6D6"/><rect width="1" height="1" x="42" y="49" fill="#D6D6D6"/><rect width="1" height="1" x="39" y="49" fill="#D6D6D6"/><rect width="10" height="1" x="40" y="50" fill="#D6D6D6"/><rect width="1" height="2" x="54" y="44" fill="#D6D6D6"/><rect width="1" height="1" x="53" y="46" fill="#D6D6D6"/><rect width="1" height="1" x="52" y="47" fill="#D6D6D6"/><rect width="1" height="1" x="51" y="48" fill="#D6D6D6"/><rect width="1" height="1" x="50" y="49" fill="#D6D6D6"/><rect width="14" height="1" x="10" y="15" fill="#D6D6D6"/><rect width="3" height="1" x="9" y="16" fill="#D6D6D6"/><rect width="2" height="31" x="9" y="17" fill="#D6D6D6"/><rect width="2" height="20" x="25" y="23" fill="#D6D6D6"/><rect width="2" height="19" x="13" y="23" fill="#D6D6D6"/><rect width="2" height="7" x="15" y="37" fill="#D6D6D6"/><rect width="6" height="6" x="17" y="38" fill="#D6D6D6"/><rect width="2" height="7" x="23" y="37" fill="#D6D6D6"/><rect width="1" height="1" x="24" y="36" fill="#D6D6D6"/><rect width="1" height="1" x="15" y="36" fill="#D6D6D6"/><rect width="1" height="2" x="13" y="43" fill="#D6D6D6"/><rect width="1" height="1" x="22" y="45" fill="#D6D6D6"/><rect width="1" height="1" x="12" y="45" fill="#D6D6D6"/><rect width="1" height="1" x="15" y="45" fill="#D6D6D6"/><rect width="1" height="1" x="23" y="47" fill="#D6D6D6"/><rect width="1" height="1" x="24" y="46" fill="#D6D6D6"/><rect width="1" height="1" x="25" y="45" fill="#D6D6D6"/><rect width="1" height="2" x="26" y="43" fill="#D6D6D6"/><rect width="1" height="2" x="13" y="18" fill="#D6D6D6"/><rect width="1" height="1" x="12" y="17" fill="#D6D6D6"/><rect width="1" height="1" x="15" y="17" fill="#D6D6D6"/><rect width="1" height="1" x="22" y="17" fill="#D6D6D6"/><rect width="1" height="1" x="24" y="16" fill="#D6D6D6"/><rect width="1" height="1" x="25" y="17" fill="#D6D6D6"/><rect width="1" height="2" x="26" y="18" fill="#D6D6D6"/><rect width="1" height="5" x="24" y="23" fill="#D6D6D6"/><rect width="1" height="5" x="15" y="23" fill="#D6D6D6"/><rect width="1" height="4" x="16" y="23" fill="#D6D6D6"/><rect width="1" height="4" x="23" y="23" fill="#D6D6D6"/><rect width="6" height="3" x="17" y="23" fill="#D6D6D6"/><rect width="6" height="1" x="17" y="27" fill="#D6D6D6"/><rect width="6" height="1" x="17" y="36" fill="#D6D6D6"/><rect width="2" height="6" x="15" y="29" fill="#D6D6D6"/><rect width="2" height="4" x="17" y="30" fill="#D6D6D6"/><rect width="2" height="6" x="23" y="29" fill="#D6D6D6"/><rect width="2" height="4" x="21" y="30" fill="#D6D6D6"/><rect width="2" height="1" x="22" y="35" fill="#D6D6D6"/><rect width="2" height="1" x="16" y="35" fill="#D6D6D6"/><rect width="4" height="1" x="18" y="34" fill="#D6D6D6"/><rect width="4" height="1" x="18" y="29" fill="#D6D6D6"/><rect width="2" height="1" x="19" y="30" fill="#D6D6D6"/><rect width="2" height="1" x="19" y="33" fill="#D6D6D6"/><rect width="2" height="1" x="16" y="28" fill="#D6D6D6"/><rect width="2" height="1" x="22" y="28" fill="#D6D6D6"/><rect width="2" height="1" x="10" y="48" fill="#D6D6D6"/><rect width="1" height="2" x="11" y="46" fill="#D6D6D6"/><rect width="11" height="2" x="12" y="47" fill="#D6D6D6"/><rect width="1" height="1" x="14" y="42" fill="#D6D6D6"/><rect width="10" height="1" x="15" y="19" fill="#D6D6D6"/><rect width="4" height="1" x="23" y="21" fill="#D6D6D6"/><rect width="4" height="1" x="13" y="21" fill="#D6D6D6"/><rect width="13" height="1" x="14" y="20" fill="#D6D6D6"/><rect width="14" height="1" x="13" y="22" fill="#D6D6D6"/><rect width="63" height="63" x=".5" y=".5" stroke="#616161" rx="7.5"/></svg>