<svg xmlns="http://www.w3.org/2000/svg" width="238" height="100" fill="none" viewBox="0 0 238 100"><g clip-path="url(#clip0_2739_25127)"><rect width=".643" height="2.5" x="71.007" y="36.04" fill="#000"/><rect width="1.286" height=".625" x="80.65" y="32.29" fill="#000"/><rect width="4.5" height=".625" x="83.221" y="34.165" fill="#000"/><rect width="3.214" height=".625" x="84.507" y="34.79" fill="#000"/><rect width="2.571" height=".625" x="85.793" y="35.415" fill="#000"/><rect width="1.286" height=".625" x="89.007" y="34.165" fill="#000"/><rect width=".643" height="1.25" x="90.936" y="34.165" fill="#000"/><rect width=".643" height="3.125" x="91.579" y="35.415" fill="#000"/><rect width=".643" height="3.125" x="82.579" y="35.415" fill="#000"/><rect width=".643" height="1.25" x="83.221" y="38.54" fill="#000"/><rect width=".643" height="1.25" x="90.936" y="38.54" fill="#000"/><rect width="3.214" height=".625" x="85.15" y="39.165" fill="#000"/><rect width="1.286" height=".625" x="83.864" y="39.79" fill="#000"/><rect width=".643" height=".625" x="90.293" y="39.79" fill="#000"/><rect width=".643" height=".625" x="82.579" y="41.04" fill="#000"/><rect width=".643" height=".625" x="83.221" y="40.415" fill="#000"/><rect width=".643" height=".625" x="90.293" y="41.04" fill="#000"/><rect width=".643" height=".625" x="89.65" y="40.415" fill="#000"/><rect width="1.286" height=".625" x="88.364" y="39.79" fill="#000"/><rect width=".643" height=".625" x="83.221" y="34.79" fill="#000"/><rect width=".643" height=".625" x="89.007" y="34.79" fill="#000"/><rect width="7.071" height=".625" x="83.864" y="33.54" fill="#000"/><rect width="5.786" height=".625" x="84.507" y="32.915" fill="#000"/><rect width="3.214" height=".625" x="85.793" y="32.29" fill="#000"/><rect width=".643" height=".625" x="82.579" y="31.04" fill="#000"/><rect width=".643" height=".625" x="81.936" y="31.665" fill="#000"/><rect width=".643" height="1.875" x="71.65" y="34.165" fill="#000"/><rect width=".643" height="1.25" x="72.293" y="32.915" fill="#000"/><rect width=".643" height=".625" x="74.221" y="29.79" fill="#000"/><rect width="1.286" height=".625" x="78.721" y="26.04" fill="#000"/><rect width="7.714" height=".625" x="81.293" y="24.79" fill="#000"/><rect width="33.429" height=".625" x="110.221" y="14.79" fill="#000"/><rect width="32.143" height=".625" x="110.864" y="37.915" fill="#000"/><rect width="10.286" height=".625" x="112.15" y="40.415" fill="#000"/><rect width="3.857" height=".625" x="115.364" y="41.04" fill="#000"/><rect width="1.929" height=".625" x="120.507" y="41.665" fill="#000"/><rect width=".643" height="1.875" x="126.936" y="39.79" fill="#000"/><rect width=".643" height="1.875" x="141.078" y="39.79" fill="#000"/><rect width="14.786" height=".625" x="126.936" y="39.165" fill="#000"/><rect width="12.214" height=".625" x="128.221" y="40.415" fill="#000"/><rect width="32.786" height=".625" x="110.864" y="42.915" fill="#000"/><rect width="12.214" height=".625" x="114.078" y="44.165" fill="#000"/><rect width="3.857" height=".625" x="126.936" y="44.165" fill="#000"/><rect width="1.929" height=".625" x="131.436" y="44.165" fill="#000"/><rect width=".643" height=".625" x="134.007" y="44.165" fill="#000"/><rect width="1.929" height=".625" x="136.578" y="44.165" fill="#000"/><rect width="1.286" height=".625" x="139.15" y="44.165" fill="#000"/><rect width="1.286" height=".625" x="141.078" y="44.165" fill="#000"/><rect width=".643" height=".625" x="135.293" y="44.165" fill="#000"/><rect width=".643" height=".625" x="133.364" y="46.665" fill="#000"/><rect width=".643" height=".625" x="141.721" y="44.79" fill="#000"/><rect width=".643" height=".625" x="141.721" y="48.54" fill="#000"/><rect width=".643" height="1.875" x="141.721" y="46.04" fill="#000"/><rect width=".643" height="3.125" x="141.721" y="49.79" fill="#000"/><rect width="10.286" height="1.25" x="129.507" y="52.29" fill="#000"/><rect width="1.929" height="1.875" x="129.507" y="46.04" fill="#000"/><rect width="1.286" height="6.25" x="121.793" y="47.29" fill="#000"/><rect width=".643" height="4.375" x="114.721" y="49.165" fill="#000"/><rect width=".643" height="3.125" x="111.507" y="49.165" fill="#000"/><rect width=".643" height=".625" x="111.507" y="52.915" fill="#000"/><rect width=".643" height=".625" x="111.507" y="47.915" fill="#000"/><rect width=".643" height=".625" x="112.15" y="44.165" fill="#000"/><rect width=".643" height="1.25" x="111.507" y="46.04" fill="#000"/><rect width=".643" height="1.25" x="111.507" y="44.165" fill="#000"/><rect width=".643" height="4.375" x="116.007" y="49.165" fill="#000"/><rect width="1.286" height="3.125" x="114.078" y="46.04" fill="#000"/><rect width="1.286" height="4.375" x="63.293" y="15.415" fill="#000"/><rect width="1.286" height="4.375" x="65.864" y="15.415" fill="#000"/><rect width="2.571" height=".625" x="63.936" y="19.79" fill="#000"/><rect width="1.286" height="4.375" x="67.793" y="17.29" fill="#000"/><rect width=".643" height=".625" x="67.793" y="16.665" fill="#000"/><rect width="1.286" height=".625" x="69.079" y="16.665" fill="#000"/><rect width="1.286" height="2.5" x="69.721" y="17.29" fill="#000"/><rect width="1.286" height="2.5" x="71.65" y="17.29" fill="#000"/><rect width="1.286" height=".625" x="72.293" y="16.665" fill="#000"/><rect width="1.286" height=".625" x="72.293" y="19.79" fill="#000"/><rect width="1.286" height="5" x="73.579" y="15.415" fill="#000"/><rect width="1.929" height=".625" x="76.15" y="16.665" fill="#000"/><rect width="1.286" height="4.375" x="80.65" y="15.415" fill="#000"/><rect width="1.286" height="3.75" x="83.221" y="16.665" fill="#000"/><rect width="1.286" height="3.125" x="85.15" y="17.29" fill="#000"/><rect width="1.286" height="3.125" x="87.079" y="17.29" fill="#000"/><rect width="1.286" height="2.5" x="89.007" y="17.29" fill="#000"/><rect width="1.286" height=".625" x="89.65" y="19.79" fill="#000"/><rect width="1.286" height=".625" x="89.65" y="16.665" fill="#000"/><rect width=".643" height=".625" x="91.579" y="16.665" fill="#000"/><rect width=".643" height=".625" x="93.507" y="19.79" fill="#000"/><rect width=".643" height=".625" x="97.364" y="19.79" fill="#000"/><rect width=".643" height=".625" x="95.436" y="19.79" fill="#000"/><rect width="1.929" height=".625" x="89.65" y="21.04" fill="#000"/><rect width="1.286" height="3.75" x="90.936" y="17.29" fill="#000"/><rect width="2.571" height=".625" x="80.007" y="16.665" fill="#000"/><rect width="1.286" height=".625" x="81.293" y="19.79" fill="#000"/><rect width="1.286" height=".625" x="83.221" y="15.415" fill="#000"/><rect width=".643" height=".625" x="85.15" y="16.665" fill="#000"/><rect width="1.286" height=".625" x="86.436" y="16.665" fill="#000"/><rect width="1.286" height=".625" x="78.079" y="19.79" fill="#000"/><rect width="1.286" height=".625" x="76.15" y="19.79" fill="#000"/><rect width="1.286" height="1.25" x="75.507" y="18.54" fill="#000"/><rect width="1.286" height=".625" x="76.15" y="17.915" fill="#000"/><rect width=".643" height=".625" x="75.507" y="17.29" fill="#000"/><rect width="1.286" height="2.5" x="77.436" y="17.29" fill="#000"/><rect width="1.286" height=".625" x="69.079" y="19.79" fill="#000"/><rect width="1.286" height="3.125" x="116.007" y="46.04" fill="#000"/><rect width="1.286" height="6.25" x="124.364" y="47.29" fill="#000"/><rect width="6.429" height=".625" x="120.507" y="46.04" fill="#000"/><rect width=".643" height="1.875" x="129.507" y="49.165" fill="#000"/><rect width=".643" height="1.25" x="126.293" y="46.665" fill="#000"/><rect width=".643" height="1.25" x="120.507" y="46.665" fill="#000"/><rect width=".643" height="1.25" x="115.364" y="46.04" fill="#000"/><rect width="1.286" height=".625" x="117.936" y="46.04" fill="#000"/><rect width="1.286" height=".625" x="117.936" y="47.29" fill="#000"/><rect width=".643" height=".625" x="121.15" y="47.915" fill="#000"/><rect width=".643" height=".625" x="125.65" y="47.915" fill="#000"/><rect width=".643" height=".625" x="121.15" y="47.915" fill="#000"/><rect width=".643" height=".625" x="125.65" y="47.915" fill="#000"/><rect width=".643" height=".625" x="120.507" y="50.415" fill="#000"/><rect width=".643" height=".625" x="125.007" y="50.415" fill="#000"/><rect width="1.286" height=".625" x="123.078" y="47.915" fill="#000"/><rect width="1.286" height=".625" x="123.078" y="52.29" fill="#000"/><rect width=".643" height=".625" x="121.15" y="50.415" fill="#000"/><rect width="1.286" height=".625" x="123.078" y="50.415" fill="#000"/><rect width="1.286" height=".625" x="125.65" y="50.415" fill="#000"/><rect width=".643" height="1.25" x="126.293" y="51.04" fill="#000"/><rect width=".643" height="1.25" x="120.507" y="51.04" fill="#000"/><rect width=".643" height=".625" x="125.65" y="52.29" fill="#000"/><rect width=".643" height=".625" x="121.15" y="52.29" fill="#000"/><rect width=".643" height=".625" fill="#000" transform="matrix(-1 0 0 1 130.793 49.165)"/><rect width="1.286" height=".625" fill="#000" transform="matrix(-1 0 0 1 131.436 50.415)"/><rect width=".643" height=".625" fill="#000" transform="matrix(-1 0 0 1 131.436 49.79)"/><rect width=".643" height="1.875" x="137.864" y="49.165" fill="#000"/><rect width=".643" height=".625" fill="#000" transform="matrix(-1 0 0 1 139.15 49.165)"/><rect width="1.286" height=".625" fill="#000" transform="matrix(-1 0 0 1 139.793 50.415)"/><rect width=".643" height=".625" fill="#000" transform="matrix(-1 0 0 1 139.793 49.79)"/><rect width=".643" height="1.875" x="135.293" y="49.165" fill="#000"/><rect width=".643" height=".625" fill="#000" transform="matrix(-1 0 0 1 136.578 49.165)"/><rect width="1.286" height=".625" fill="#000" transform="matrix(-1 0 0 1 137.221 50.415)"/><rect width=".643" height=".625" fill="#000" transform="matrix(-1 0 0 1 137.221 49.79)"/><rect width=".643" height="1.875" x="132.078" y="49.165" fill="#000"/><rect width=".643" height=".625" fill="#000" transform="matrix(-1 0 0 1 133.364 49.165)"/><rect width="1.286" height=".625" fill="#000" transform="matrix(-1 0 0 1 134.007 50.415)"/><rect width=".643" height=".625" fill="#000" transform="matrix(-1 0 0 1 134.007 49.79)"/><rect width="2.571" height=".625" x="131.436" y="46.04" fill="#000"/><rect width="2.571" height=".625" x="131.436" y="47.29" fill="#000"/><rect width=".643" height=".625" x="139.15" y="46.665" fill="#000"/><rect width="1.929" height="1.875" x="135.293" y="46.04" fill="#000"/><rect width="2.571" height=".625" x="137.221" y="46.04" fill="#000"/><rect width="2.571" height=".625" x="137.221" y="47.29" fill="#000"/><rect width="14.786" height=".625" x="126.936" y="41.665" fill="#000"/><rect width="3.857" height=".625" x="115.364" y="39.79" fill="#000"/><rect width="1.929" height=".625" x="112.793" y="36.04" fill="#000"/><rect width="1.929" height=".625" x="139.15" y="36.04" fill="#000"/><rect width=".643" height=".625" x="137.221" y="36.04" fill="#000"/><rect width=".643" height=".625" x="138.507" y="18.54" fill="#000"/><rect width=".643" height=".625" x="139.15" y="22.915" fill="#000"/><rect width=".643" height="1.25" x="139.15" y="18.54" fill="#000"/><rect width=".643" height="2.5" x="135.936" y="19.79" fill="#000"/><rect width=".643" height="1.875" x="136.578" y="20.415" fill="#000"/><rect width=".643" height="1.25" x="137.221" y="21.04" fill="#000"/><rect width=".643" height=".625" x="137.864" y="21.665" fill="#000"/><rect width=".643" height=".625" x="134.007" y="18.54" fill="#000"/><rect width="28.286" height="1.875" x="112.793" y="33.54" fill="#000"/><rect width="28.286" height="1.25" x="112.793" y="17.29" fill="#000"/><rect width="18.643" height="9.375" x="122.436" y="24.165" fill="#000"/><rect width="10.929" height="5.625" x="122.436" y="18.54" fill="#000"/><rect width="2.571" height="5" x="133.364" y="19.165" fill="#000"/><rect width="4.5" height="5" x="117.936" y="21.04" fill="#000"/><rect width="1.929" height="1.25" x="120.507" y="19.79" fill="#000"/><rect width="9.643" height=".625" x="112.793" y="18.54" fill="#000"/><rect width="1.286" height="14.375" x="112.793" y="19.165" fill="#000"/><rect width="1.929" height="4.375" x="120.507" y="26.04" fill="#000"/><rect width="4.5" height="2.5" x="117.936" y="31.04" fill="#000"/><rect width="3.214" height="3.125" x="117.293" y="27.29" fill="#000"/><rect width="6.429" height=".625" x="114.078" y="26.04" fill="#000"/><rect width=".643" height=".625" x="117.293" y="26.665" fill="#000"/><rect width=".643" height="6.25" x="114.721" y="24.79" fill="#000"/><rect width=".643" height="2.5" x="115.364" y="31.04" fill="#000"/><rect width=".643" height="1.875" x="116.007" y="28.54" fill="#000"/><rect width=".643" height="2.5" x="115.364" y="22.915" fill="#000"/><rect width="1.929" height="1.25" x="116.007" y="24.79" fill="#000"/><rect width=".643" height=".625" x="119.221" y="26.665" fill="#000"/><rect width=".643" height=".625" x="119.864" y="30.415" fill="#000"/><rect width=".643" height="5" x="116.65" y="28.54" fill="#000"/><rect width=".643" height="1.25" x="117.293" y="32.29" fill="#000"/><rect width=".643" height=".625" x="117.293" y="31.04" fill="#000"/><rect width="3.857" height=".625" x="114.078" y="23.54" fill="#000"/><rect width="3.857" height=".625" x="114.078" y="22.29" fill="#000"/><rect width="1.929" height="1.25" x="116.007" y="21.04" fill="#000"/><rect width="1.929" height=".625" x="115.364" y="27.29" fill="#000"/><rect width="1.286" height=".625" x="114.078" y="32.29" fill="#000"/><rect width=".643" height=".625" x="116.007" y="32.29" fill="#000"/><rect width=".643" height=".625" x="115.364" y="29.79" fill="#000"/><rect width=".643" height=".625" x="116.007" y="31.04" fill="#000"/><rect width=".643" height=".625" x="114.078" y="29.79" fill="#000"/><rect width=".643" height=".625" x="115.364" y="28.54" fill="#000"/><rect width="6.429" height=".625" x="114.078" y="19.79" fill="#000"/><rect width=".643" height="1.875" x="114.721" y="20.415" fill="#000"/><rect width=".643" height=".625" x="117.936" y="19.165" fill="#000"/><rect width=".643" height=".625" x="114.078" y="21.04" fill="#000"/><rect width=".643" height=".625" x="115.364" y="21.04" fill="#000"/><rect width=".643" height=".625" x="116.65" y="20.415" fill="#000"/><rect width=".643" height=".625" x="118.578" y="20.415" fill="#000"/><rect width=".643" height=".625" x="120.507" y="19.165" fill="#000"/><rect width=".643" height=".625" x="119.221" y="19.165" fill="#000"/><rect width=".643" height=".625" x="114.721" y="19.165" fill="#000"/><rect width=".643" height=".625" x="114.078" y="27.29" fill="#000"/><rect width=".643" height=".625" x="114.078" y="28.54" fill="#000"/><rect width="1.286" height=".625" x="114.078" y="31.04" fill="#000"/><rect width=".643" height=".625" x="114.078" y="24.79" fill="#000"/><rect width=".643" height=".625" x="118.578" y="30.415" fill="#000"/><rect width="3.214" height="1.875" x="135.936" y="22.29" fill="#000"/><rect width="1.286" height="5.625" x="139.793" y="18.54" fill="#000"/><rect width=".643" height="38.125" x="110.221" y="15.415" fill="#000"/><rect width=".643" height="38.125" x="143.007" y="15.415" fill="#000"/><rect width=".643" height="38.125" x="143.007" y="15.415" fill="#000"/><rect width="1.286" height=".625" x="80.007" y="25.415" fill="#000"/><rect width="1.286" height=".625" x="93.507" y="27.29" fill="#000"/><rect width=".643" height=".625" x="97.364" y="31.04" fill="#000"/><rect width=".643" height=".625" x="99.936" y="29.165" fill="#000"/><rect width="1.286" height=".625" x="99.936" y="28.54" fill="#000"/><rect width="2.571" height=".625" x="94.793" y="26.665" fill="#000"/><rect width="1.286" height=".625" x="97.364" y="25.415" fill="#000"/><rect width="5.143" height=".625" x="99.293" y="24.165" fill="#000"/><rect width="4.5" height=".625" x="99.293" y="24.79" fill="#000"/><rect width="2.571" height=".625" x="99.936" y="26.04" fill="#000"/><rect width="1.929" height=".625" x="100.578" y="26.665" fill="#000"/><rect width=".643" height=".625" x="101.221" y="27.29" fill="#000"/><rect width="3.214" height=".625" x="101.221" y="23.54" fill="#000"/><rect width="1.286" height=".625" x="102.507" y="22.29" fill="#000"/><rect width=".643" height=".625" x="103.793" y="21.665" fill="#000"/><rect width=".643" height="1.25" x="105.721" y="21.04" fill="#000"/><rect width=".643" height="1.875" x="105.078" y="18.54" fill="#000"/><rect width=".643" height="3.125" x="104.436" y="15.415" fill="#000"/><rect width=".643" height="1.25" x="106.364" y="14.79" fill="#000"/><rect width=".643" height=".625" x="107.65" y="13.54" fill="#000"/><rect width=".643" height=".625" x="105.721" y="13.54" fill="#000"/><rect width=".643" height=".625" x="107.007" y="14.165" fill="#000"/><rect width=".643" height="1.25" x="105.078" y="14.165" fill="#000"/><rect width=".643" height="1.875" x="105.721" y="16.04" fill="#000"/><rect width=".643" height="3.125" x="106.364" y="17.915" fill="#000"/><rect width=".643" height="1.25" x="104.436" y="20.415" fill="#000"/><rect width=".643" height=".625" x="105.078" y="22.29" fill="#000"/><rect width=".643" height=".625" x="104.436" y="22.915" fill="#000"/><rect width="1.929" height=".625" x="101.864" y="22.915" fill="#000"/><rect width="3.857" height=".625" x="99.293" y="25.415" fill="#000"/><rect width="1.286" height=".625" x="98.007" y="24.79" fill="#000"/><rect width="1.286" height=".625" x="96.721" y="26.04" fill="#000"/><rect width="1.286" height=".625" x="100.578" y="27.915" fill="#000"/><rect width=".643" height=".625" x="97.364" y="27.29" fill="#000"/><rect width=".643" height=".625" x="98.007" y="27.915" fill="#000"/><rect width=".643" height=".625" x="98.65" y="28.54" fill="#000"/><rect width=".643" height="2.5" x="99.293" y="29.165" fill="#000"/><rect width=".643" height=".625" x="98.007" y="32.29" fill="#000"/><rect width="1.929" height=".625" x="97.364" y="31.665" fill="#000"/><rect width=".643" height="1.875" x="99.293" y="34.79" fill="#000"/><rect width=".643" height="9.375" x="100.578" y="39.165" fill="#000"/><rect width=".643" height="5" x="99.936" y="48.54" fill="#000"/><rect width=".643" height="1.875" x="69.721" y="51.665" fill="#000"/><rect width=".643" height="3.125" x="70.364" y="48.54" fill="#000"/><rect width="1.929" height="2.5" x="72.293" y="49.79" fill="#000"/><rect width="2.571" height="2.5" x="74.221" y="50.415" fill="#000"/><rect width="1.286" height=".625" x="72.936" y="52.29" fill="#000"/><rect width="1.286" height="1.25" x="76.793" y="51.04" fill="#000"/><rect width="1.286" height=".625" x="78.079" y="51.04" fill="#000"/><rect width=".643" height=".625" x="69.721" y="48.54" fill="#000"/><rect width="1.286" height=".625" x="68.436" y="47.915" fill="#000"/><rect width="1.286" height=".625" x="66.507" y="46.665" fill="#000"/><rect width=".643" height=".625" x="65.864" y="46.04" fill="#000"/><rect width=".643" height=".625" x="63.936" y="44.165" fill="#000"/><rect width=".643" height="3.125" x="63.293" y="41.04" fill="#000"/><rect width=".643" height="3.125" x="62.65" y="39.79" fill="#000"/><rect width=".643" height="1.25" x="63.293" y="38.54" fill="#000"/><rect width=".643" height=".625" x="63.936" y="37.915" fill="#000"/><rect width="1.286" height=".625" x="64.579" y="37.29" fill="#000"/><rect width="3.214" height=".625" x="65.864" y="36.665" fill="#000"/><rect width="1.929" height=".625" x="69.079" y="37.29" fill="#000"/><rect width=".643" height=".625" x="71.65" y="37.915" fill="#000"/><rect width="1.286" height=".625" x="73.579" y="39.165" fill="#000"/><rect width="1.929" height=".625" x="77.436" y="41.04" fill="#000"/><rect width="1.286" height=".625" x="76.15" y="41.665" fill="#000"/><rect width=".643" height=".625" x="79.364" y="41.665" fill="#000"/><rect width=".643" height="2.5" x="80.007" y="42.29" fill="#000"/><rect width=".643" height=".625" x="79.364" y="44.79" fill="#000"/><rect width=".643" height=".625" x="78.721" y="45.415" fill="#000"/><rect width=".643" height=".625" x="84.507" y="46.04" fill="#000"/><rect width=".643" height=".625" x="75.507" y="42.29" fill="#000"/><rect width=".643" height=".625" x="74.864" y="42.915" fill="#000"/><rect width=".643" height=".625" x="74.221" y="43.54" fill="#000"/><rect width="4.5" height=".625" x="77.436" y="46.04" fill="#000"/><rect width="1.929" height=".625" x="75.507" y="45.415" fill="#000"/><rect width="1.286" height=".625" x="74.221" y="44.79" fill="#000"/><rect width="1.929" height=".625" x="72.936" y="44.165" fill="#000"/><rect width="1.286" height=".625" x="71.65" y="43.54" fill="#000"/><rect width="2.571" height=".625" x="63.936" y="40.415" fill="#000"/><rect width="2.571" height=".625" x="81.936" y="45.415" fill="#000"/><rect width="1.286" height=".625" x="66.507" y="41.04" fill="#000"/><rect width="1.286" height=".625" x="67.793" y="41.665" fill="#000"/><rect width="1.286" height=".625" x="69.079" y="42.29" fill="#000"/><rect width="1.286" height=".625" x="70.364" y="42.915" fill="#000"/><rect width=".643" height=".625" x="77.436" y="44.165" fill="#000"/><rect width=".643" height=".625" x="76.793" y="44.79" fill="#000"/><rect width="1.286" height=".625" x="74.864" y="39.79" fill="#000"/><rect width="1.286" height=".625" x="72.293" y="38.54" fill="#000"/><rect width=".643" height=".625" x="64.579" y="44.79" fill="#000"/><rect width=".643" height=".625" x="65.221" y="45.415" fill="#000"/><rect width=".643" height=".625" x="67.793" y="47.29" fill="#000"/><rect width="1.286" height="3.125" x="71.007" y="49.165" fill="#000"/><rect width=".643" height="2.5" x="99.936" y="36.665" fill="#000"/><rect width=".643" height="1.25" x="98.65" y="33.54" fill="#000"/><rect width="1.286" height=".625" x="96.721" y="30.415" fill="#000"/><rect width="1.286" height=".625" x="96.079" y="29.79" fill="#000"/><rect width="1.286" height=".625" x="95.436" y="29.165" fill="#000"/><rect width="1.286" height=".625" x="94.793" y="28.54" fill="#000"/><rect width="1.286" height=".625" x="94.15" y="27.915" fill="#000"/><rect width="1.286" height=".625" x="92.221" y="26.665" fill="#000"/><rect width="1.286" height=".625" x="90.936" y="26.04" fill="#000"/><rect width="1.929" height=".625" x="89.007" y="25.415" fill="#000"/><rect width="1.286" height=".625" x="77.436" y="26.665" fill="#000"/><rect width=".643" height=".625" x="76.793" y="27.29" fill="#000"/><rect width=".643" height=".625" x="76.15" y="27.915" fill="#000"/><rect width=".643" height=".625" x="75.507" y="28.54" fill="#000"/><rect width=".643" height=".625" x="74.864" y="29.165" fill="#000"/><rect width=".643" height="1.25" x="73.579" y="30.415" fill="#000"/><rect width=".643" height="1.25" x="72.936" y="31.665" fill="#000"/></g><defs><clipPath id="clip0_2739_25127"><rect width="81" height="40" fill="#fff" transform="translate(62.6499 13.54)"/></clipPath></defs></svg>