<svg xmlns="http://www.w3.org/2000/svg" width="154" height="92" fill="none" viewBox="0 0 154 92"><rect width="1.54" height="3.067" x="1.54" y="87.4" fill="#000"/><rect width="1.54" height="4.6" x="3.08" y="82.8" fill="#000"/><rect width="1.54" height="6.133" x="4.62" y="76.667" fill="#000"/><rect width="1.54" height="4.6" x="6.16" y="72.067" fill="#000"/><rect width="1.54" height="6.133" x="7.7" y="65.933" fill="#000"/><rect width="1.54" height="9.2" x="10.78" y="65.933" fill="#000"/><rect width="1.54" height="26.067" x="9.24" y="39.867" fill="#000"/><rect width="1.54" height="6.133" x="10.78" y="33.733" fill="#000"/><rect width="1.54" height="4.6" x="12.32" y="29.133" fill="#000"/><rect width="1.54" height="3.067" x="13.86" y="26.067" fill="#000"/><rect width="1.54" height="3.067" x="15.4" y="23" fill="#000"/><rect width="1.54" height="1.533" x="16.94" y="21.467" fill="#000"/><rect width="3.08" height="1.533" x="26.18" y="12.267" fill="#000"/><rect width="4.62" height="1.533" x="32.34" y="9.2" fill="#000"/><rect width="18.48" height="1.533" x="36.96" y="7.667" fill="#000"/><rect width="6.16" height="1.533" x="55.44" y="9.2" fill="#000"/><rect width="3.08" height="1.533" x="61.6" y="10.733" fill="#000"/><rect width="3.08" height="1.533" x="64.68" y="12.267" fill="#000"/><rect width="1.54" height="1.533" x="67.76" y="13.8" fill="#000"/><rect width="1.54" height="3.067" x="77" y="23" fill="#000"/><rect width="1.54" height="4.6" x="80.08" y="29.133" fill="#000"/><rect width="1.54" height="3.067" x="81.62" y="33.733" fill="#000"/><rect width="1.54" height="1.533" x="80.08" y="36.8" fill="#000"/><rect width="3.08" height="1.533" x="72.38" y="41.4" fill="#000"/><rect width="3.08" height="1.533" x="67.76" y="44.467" fill="#000"/><rect width="1.54" height="1.533" x="75.46" y="39.867" fill="#000"/><rect width="1.54" height="1.533" x="70.84" y="42.933" fill="#000"/><rect width="3.08" height="1.533" x="77" y="38.333" fill="#000"/><rect width="1.54" height="1.533" x="83.16" y="33.733" fill="#000"/><rect width="3.08" height="1.533" x="84.7" y="32.2" fill="#000"/><rect width="6.16" height="1.533" x="90.86" y="29.133" fill="#000"/><rect width="3.08" height="1.533" x="97.02" y="30.667" fill="#000"/><rect width="1.54" height="1.533" x="100.1" y="32.2" fill="#000"/><rect width="1.54" height="7.667" x="101.64" y="33.733" fill="#000"/><rect width="1.54" height="6.133" x="100.1" y="38.333" fill="#000"/><rect width="1.54" height="7.667" x="98.56" y="38.333" fill="#000"/><rect width="1.54" height="9.2" x="97.02" y="38.333" fill="#000"/><rect width="1.54" height="9.2" x="95.48" y="39.867" fill="#000"/><rect width="1.54" height="3.067" x="121.66" y="15.333" fill="#000"/><rect width="1.54" height="6.133" x="123.2" y="13.8" fill="#000"/><rect width="1.54" height="7.667" x="124.74" y="13.8" fill="#000"/><rect width="1.54" height="7.667" x="130.9" y="19.933" fill="#000"/><rect width="1.54" height="12.267" x="140.14" y="15.333" fill="#000"/><rect width="1.54" height="12.267" x="141.68" y="12.267" fill="#000"/><rect width="1.54" height="12.267" x="143.22" y="9.2" fill="#000"/><rect width="1.54" height="12.267" x="146.3" y="3.067" fill="#000"/><rect width="1.54" height="10.733" x="147.84" y="1.533" fill="#000"/><rect width="1.54" height="7.667" x="149.38" y="1.533" fill="#000"/><rect width="1.54" height="3.067" x="150.92" y="3.067" fill="#000"/><rect width="1.54" height="12.267" x="144.76" y="6.133" fill="#000"/><rect width="1.54" height="12.267" x="138.6" y="18.4" fill="#000"/><rect width="1.54" height="10.733" x="137.06" y="21.467" fill="#000"/><rect width="1.54" height="7.667" x="135.52" y="24.533" fill="#000"/><rect width="1.54" height="7.667" x="133.98" y="23" fill="#000"/><rect width="1.54" height="7.667" x="132.44" y="21.467" fill="#000"/><rect width="1.54" height="7.667" x="129.36" y="18.4" fill="#000"/><rect width="1.54" height="7.667" x="127.82" y="16.867" fill="#000"/><rect width="1.54" height="7.667" x="126.28" y="15.333" fill="#000"/><rect width="1.54" height="10.733" x="93.94" y="39.867" fill="#000"/><rect width="1.54" height="10.733" x="92.4" y="41.4" fill="#000"/><rect width="1.54" height="10.733" x="87.78" y="46" fill="#000"/><rect width="1.54" height="13.8" x="86.24" y="47.533" fill="#000"/><rect width="1.54" height="3.067" x="87.78" y="58.267" fill="#000"/><rect width="6.16" height="1.533" x="89.32" y="58.267" fill="#000"/><rect width="7.7" height="1.533" x="95.48" y="56.733" fill="#000"/><rect width="1.54" height="6.133" x="103.18" y="58.267" fill="#000"/><rect width="1.54" height="1.533" x="101.64" y="64.4" fill="#000"/><rect width="1.54" height="1.533" x="98.56" y="67.467" fill="#000"/><rect width="3.08" height="1.533" x="95.48" y="69" fill="#000"/><rect width="4.62" height="1.533" x="90.86" y="70.533" fill="#000"/><rect width="4.62" height="1.533" x="86.24" y="72.067" fill="#000"/><rect width="9.24" height="1.533" x="81.62" y="73.6" fill="#000"/><rect width="13.86" height="1.533" x="77" y="75.133" fill="#000"/><rect width="20.02" height="1.533" x="70.84" y="76.667" fill="#000"/><rect width="13.86" height="1.533" x="73.92" y="78.2" fill="#000"/><rect width="7.7" height="1.533" x="77" y="79.733" fill="#000"/><rect width="1.54" height="3.067" x="89.32" y="78.2" fill="#000"/><rect width="1.54" height="6.133" x="90.86" y="81.267" fill="#000"/><rect width="1.54" height="3.067" x="92.4" y="87.4" fill="#000"/><rect width="6.16" height="1.533" x="92.4" y="82.8" fill="#000"/><rect width="3.08" height="1.533" x="98.56" y="81.267" fill="#000"/><rect width="1.54" height="1.533" x="107.8" y="76.667" fill="#000"/><rect width="1.54" height="3.067" x="115.5" y="67.467" fill="#000"/><rect width="1.54" height="6.133" x="123.2" y="47.533" fill="#000"/><rect width="1.54" height="3.067" x="129.36" y="47.533" fill="#000"/><rect width="3.08" height="1.533" x="132.44" y="56.733" fill="#000"/><rect width="1.54" height="1.533" x="138.6" y="59.8" fill="#000"/><rect width="1.54" height="6.133" x="123.2" y="62.867" fill="#000"/><rect width="1.54" height="9.2" x="141.68" y="64.4" fill="#000"/><rect width="1.54" height="3.067" x="140.14" y="61.333" fill="#000"/><rect width="3.08" height="1.533" x="127.82" y="75.133" fill="#000"/><rect width="1.54" height="1.533" x="140.14" y="73.6" fill="#000"/><rect width="3.08" height="1.533" x="137.06" y="75.133" fill="#000"/><rect width="6.16" height="1.533" x="130.9" y="76.667" fill="#000"/><rect width="1.54" height="3.067" x="133.98" y="78.2" fill="#000"/><rect width="1.54" height="3.067" x="129.36" y="87.4" fill="#000"/><rect width="1.54" height="3.067" x="130.9" y="84.333" fill="#000"/><rect width="1.54" height="3.067" x="132.44" y="81.267" fill="#000"/><rect width="1.54" height="3.067" x="126.28" y="72.067" fill="#000"/><rect width="1.54" height="3.067" x="124.74" y="69" fill="#000"/><rect width="1.54" height="1.533" x="124.74" y="61.333" fill="#000"/><rect width="1.54" height="1.533" x="126.28" y="59.8" fill="#000"/><rect width="3.08" height="1.533" x="135.52" y="58.267" fill="#000"/><rect width="1.54" height="3.067" x="129.36" y="47.533" fill="#000"/><rect width="3.08" height="1.533" x="127.82" y="58.267" fill="#000"/><rect width="1.54" height="7.667" x="130.9" y="50.6" fill="#000"/><rect width="4.62" height="1.533" x="124.74" y="46" fill="#000"/><rect width="1.54" height="4.6" x="121.66" y="53.667" fill="#000"/><rect width="1.54" height="3.067" x="120.12" y="58.267" fill="#000"/><rect width="1.54" height="3.067" x="118.58" y="61.333" fill="#000"/><rect width="1.54" height="3.067" x="117.04" y="64.4" fill="#000"/><rect width="1.54" height="1.533" x="113.96" y="70.533" fill="#000"/><rect width="1.54" height="1.533" x="112.42" y="72.067" fill="#000"/><rect width="1.54" height="1.533" x="110.88" y="73.6" fill="#000"/><rect width="1.54" height="1.533" x="109.34" y="75.133" fill="#000"/><rect width="3.08" height="1.533" x="104.72" y="78.2" fill="#000"/><rect width="3.08" height="1.533" x="101.64" y="79.733" fill="#000"/><rect width="1.54" height="1.533" x="100.1" y="65.933" fill="#000"/><rect width="1.54" height="12.267" x="84.7" y="49.067" fill="#000"/><rect width="1.54" height="10.733" x="83.16" y="50.6" fill="#000"/><rect width="1.54" height="7.667" x="81.62" y="52.133" fill="#000"/><rect width="1.54" height="6.133" x="80.08" y="53.667" fill="#000"/><rect width="1.54" height="3.067" x="78.54" y="55.2" fill="#000"/><rect width="1.54" height="1.533" x="77" y="56.733" fill="#000"/><rect width="3.08" height="1.533" x="73.92" y="58.267" fill="#000"/><rect width="4.62" height="1.533" x="69.3" y="59.8" fill="#000"/><rect width="4.62" height="1.533" x="64.68" y="61.333" fill="#000"/><rect width="21.56" height="1.533" x="53.9" y="62.867" fill="#000"/><rect width="4.62" height="1.533" x="49.28" y="61.333" fill="#000"/><rect width="3.08" height="1.533" x="46.2" y="59.8" fill="#000"/><rect width="1.54" height="1.533" x="44.66" y="58.267" fill="#000"/><rect width="1.54" height="1.533" x="50.82" y="49.067" fill="#000"/><rect width="3.08" height="1.533" x="47.74" y="47.533" fill="#000"/><rect width="1.54" height="3.067" x="50.82" y="44.467" fill="#000"/><rect width="1.54" height="3.067" x="50.82" y="33.733" fill="#000"/><rect width="1.54" height="1.533" x="49.28" y="32.2" fill="#000"/><rect width="1.54" height="1.533" x="47.74" y="30.667" fill="#000"/><rect width="1.54" height="1.533" x="32.34" y="30.667" fill="#000"/><rect width="1.54" height="1.533" x="30.8" y="32.2" fill="#000"/><rect width="1.54" height="3.067" x="29.26" y="33.733" fill="#000"/><rect width="1.54" height="7.667" x="27.72" y="36.8" fill="#000"/><rect width="1.54" height="3.067" x="29.26" y="44.467" fill="#000"/><rect width="1.54" height="1.533" x="30.8" y="47.533" fill="#000"/><rect width="3.08" height="1.533" x="35.42" y="47.533" fill="#000"/><rect width="1.54" height="3.067" x="32.34" y="50.6" fill="#000"/><rect width="1.54" height="3.067" x="30.8" y="53.667" fill="#000"/><rect width="3.08" height="1.533" x="32.34" y="49.067" fill="#000"/><rect width="12.32" height="1.533" x="35.42" y="46" fill="#000"/><rect width="13.86" height="1.533" x="33.88" y="44.467" fill="#000"/><rect width="16.94" height="1.533" x="32.34" y="42.933" fill="#000"/><rect width="16.94" height="1.533" x="32.34" y="38.333" fill="#000"/><rect width="9.24" height="1.533" x="40.04" y="36.8" fill="#000"/><rect width="7.7" height="1.533" x="40.04" y="35.267" fill="#000"/><rect width="10.78" height="1.533" x="35.42" y="33.733" fill="#000"/><rect width="7.7" height="1.533" x="36.96" y="32.2" fill="#000"/><rect width="3.08" height="1.533" x="33.88" y="35.267" fill="#000"/><rect width="4.62" height="1.533" x="32.34" y="36.8" fill="#000"/><rect width="16.94" height="1.533" x="32.34" y="39.867" fill="#000"/><rect width="16.94" height="1.533" x="32.34" y="41.4" fill="#000"/><rect width="3.08" height="1.533" x="44.66" y="29.133" fill="#000"/><rect width="3.08" height="1.533" x="33.88" y="29.133" fill="#000"/><rect width="7.7" height="1.533" x="36.96" y="27.6" fill="#000"/><rect width="1.54" height="7.667" x="52.36" y="36.8" fill="#000"/><rect width="7.7" height="1.533" x="75.46" y="61.333" fill="#000"/><rect width="1.54" height="10.733" x="89.32" y="44.467" fill="#000"/><rect width="1.54" height="10.733" x="90.86" y="42.933" fill="#000"/><rect width="3.08" height="1.533" x="87.78" y="30.667" fill="#000"/><rect width="1.54" height="3.067" x="78.54" y="26.067" fill="#000"/><rect width="1.54" height="1.533" x="75.46" y="21.467" fill="#000"/><rect width="1.54" height="1.533" x="73.92" y="19.933" fill="#000"/><rect width="1.54" height="1.533" x="72.38" y="18.4" fill="#000"/><rect width="1.54" height="1.533" x="70.84" y="16.867" fill="#000"/><rect width="1.54" height="1.533" x="69.3" y="15.333" fill="#000"/><rect width="3.08" height="1.533" x="29.26" y="10.733" fill="#000"/><rect width="1.54" height="1.533" x="24.64" y="13.8" fill="#000"/><rect width="1.54" height="1.533" x="23.1" y="15.333" fill="#000"/><rect width="1.54" height="1.533" x="21.56" y="16.867" fill="#000"/><rect width="1.54" height="1.533" x="20.02" y="18.4" fill="#000"/><rect width="1.54" height="1.533" x="18.48" y="19.933" fill="#000"/><rect width="1.54" height="6.133" x="12.32" y="75.133" fill="#000"/><rect width="1.54" height="6.133" x="13.86" y="81.267" fill="#000"/><rect width="1.54" height="3.067" x="15.4" y="87.4" fill="#000"/></svg>