<svg xmlns="http://www.w3.org/2000/svg" width="238" height="100" fill="none" viewBox="0 0 238 100"><rect width="2.909" height="2.973" x="85.069" y="24.858" fill="#000" transform="rotate(90 85.0688 24.8582)"/><rect width="2.909" height="2.973" x="79.123" y="19.04" fill="#000" transform="rotate(90 79.1229 19.04)"/><rect width="2.909" height="2.973" x="88.042" y="27.767" fill="#000" transform="rotate(90 88.0418 27.7673)"/><rect width="2.973" height="2.909" x="85.069" y="21.949" fill="#000"/><rect width="29.73" height="2.909" x="88.785" y="45.222" fill="#000"/><rect width="2.973" height="2.909" x="85.812" y="48.131" fill="#000"/><rect width="2.973" height="2.909" x="118.515" y="48.131" fill="#000"/><rect width="2.973" height="2.909" x="79.123" y="27.767" fill="#000"/><rect width="2.973" height="2.909" x="88.042" y="19.04" fill="#000"/><rect width="2.973" height="2.909" x="82.096" y="24.858" fill="#000"/><rect width="2.909" height="2.973" x="91.015" y="30.676" fill="#000" transform="rotate(90 91.0147 30.6763)"/><rect width="2.909" height="2.973" x="79.123" y="30.676" fill="#000" transform="rotate(90 79.1229 30.6763)"/><rect width="2.909" height="2.973" x="82.096" y="21.949" fill="#000" transform="rotate(90 82.0958 21.9492)"/><rect width="2.909" height="2.973" x="125.204" y="24.858" fill="#000" transform="rotate(90 125.204 24.8582)"/><rect width="2.909" height="2.973" x="119.258" y="19.04" fill="#000" transform="rotate(90 119.258 19.04)"/><rect width="2.909" height="2.973" x="128.177" y="27.767" fill="#000" transform="rotate(90 128.177 27.7673)"/><rect width="2.973" height="2.909" x="125.204" y="21.949" fill="#000"/><rect width="2.973" height="2.909" x="119.258" y="27.767" fill="#000"/><rect width="2.973" height="2.909" x="128.177" y="19.04" fill="#000"/><rect width="2.973" height="2.909" x="122.231" y="24.858" fill="#000"/><rect width="2.909" height="2.973" x="131.15" y="30.677" fill="#000" transform="rotate(90 131.15 30.6765)"/><rect width="2.909" height="2.973" x="119.258" y="30.676" fill="#000" transform="rotate(90 119.258 30.6763)"/><rect width="2.909" height="2.973" x="122.231" y="21.949" fill="#000" transform="rotate(90 122.231 21.9492)"/></svg>